# xmcd CD database file
#
# Track frame offsets:
#	150
#	4000
#	30676
#	61905
#	106935
#	143584
#	168316
#	183098
#
# Disc length: 2928 seconds
#
# Revision: 0
# Processed by: cddbd v1.5.2PL0 Copyright (c) Steve Scherf et al.
# Submitted via: CDex 1.51
#
DISCID=580b6e08
DTITLE=Amma Kali - Amma Kali
DYEAR=2008
DGENRE=New Age
TTITLE0=Three Chants of the Sacred Syllable Om
TTITLE1=One Day
TTITLE2=Amma Kali
TTITLE3=Devaki Nandana Gopala
TTITLE4=Raghupate Raghava
TTITLE5=Dhyana Sloka
TTITLE6=Lokah Samasta Prayer
TTITLE7=108 Names of the Divine Mother
EXTD=YEAR: 2008
EXTT0=
EXTT1=
EXTT2=
EXTT3=
EXTT4=
EXTT5=
EXTT6=
EXTT7=
PLAYORDER=
